# xmcd
#
# Track frame offsets:
# 150
# 933
# 12773
# 25380
# 36579
# 60173
# 86341
# 130216
# 156235
# 187554
# 205365
# 229470
# 242142
# 263094
# 281307
# 299232
# 312930
#
# Disc length: 4397 seconds
#
# Revision: 0
# Processed by: cddbd v1.5.2PL0 Copyright (c) Steve Scherf et al.
# Submitted via: Audion 3.0.2 (http://www.panic.com/audion/)
#
DISCID=e2112b11
DTITLE=f - f
DYEAR=1900
DGENRE=
TTITLE0=f
TTITLE1=f
TTITLE2=ff
TTITLE3=f
TTITLE4=ff
TTITLE5=f
TTITLE6=f
TTITLE7=f
TTITLE8=f
TTITLE9=ff
TTITLE10=f
TTITLE11=f
TTITLE12=fff
TTITLE13=ff
TTITLE14=ff
TTITLE15=f
TTITLE16=f
EXTD=
EXTT0=
EXTT1=
EXTT2=
EXTT3=
EXTT4=
EXTT5=
EXTT6=
EXTT7=
EXTT8=
EXTT9=
EXTT10=
EXTT11=
EXTT12=
EXTT13=
EXTT14=
EXTT15=
EXTT16=
PLAYORDER=
